<?xml version="1.0" encoding="UTF-8"?>
<svg xmlns="http://www.w3.org/2000/svg" xmlns:xlink="http://www.w3.org/1999/xlink" width="192pt" height="28pt" viewBox="0 0 192 28" version="1.1">
    <g id="surface1">
        <path style=" stroke:none;fill-rule:nonzero;fill:rgb(0%,0%,0%);fill-opacity:1;" d="M 30.914062 17.757812 C 30.914062 11.96875 35.316406 7.640625 41.253906 7.640625 C 47.15625 7.640625 51.59375 11.949219 51.59375 17.757812 C 51.59375 23.570312 47.15625 27.878906 41.253906 27.878906 C 35.328125 27.878906 30.914062 23.550781 30.914062 17.757812 Z M 50.125 17.757812 C 50.125 12.71875 46.324219 8.980469 41.265625 8.980469 C 36.183594 8.980469 32.371094 12.71875 32.371094 17.757812 C 32.371094 22.800781 36.171875 26.539062 41.265625 26.539062 C 46.3125 26.539062 50.125 22.800781 50.125 17.757812 Z M 50.125 17.757812 "/>
        <path style=" stroke:none;fill-rule:nonzero;fill:rgb(0%,0%,0%);fill-opacity:1;" d="M 80.011719 7.785156 L 71.152344 27.742188 L 69.707031 27.742188 L 60.832031 7.785156 L 62.421875 7.785156 L 70.460938 25.859375 L 78.5 7.785156 Z M 80.011719 7.785156 "/>
        <path style=" stroke:none;fill-rule:nonzero;fill:rgb(0%,0%,0%);fill-opacity:1;" d="M 105.507812 26.425781 L 105.507812 27.730469 L 91.785156 27.730469 L 91.785156 7.785156 L 105.082031 7.785156 L 105.082031 9.101562 L 93.230469 9.101562 L 93.230469 16.96875 L 103.828125 16.96875 L 103.828125 18.25 L 93.230469 18.25 L 93.230469 26.425781 Z M 105.507812 26.425781 "/>
        <path style=" stroke:none;fill-rule:nonzero;fill:rgb(0%,0%,0%);fill-opacity:1;" d="M 131.902344 27.730469 L 127.152344 21.0625 C 126.53125 21.152344 125.910156 21.207031 125.21875 21.207031 L 119.539062 21.207031 L 119.539062 27.730469 L 118.09375 27.730469 L 118.09375 7.785156 L 125.21875 7.785156 C 130.222656 7.785156 133.234375 10.296875 133.234375 14.511719 C 133.234375 17.679688 131.535156 19.867188 128.578125 20.761719 L 133.546875 27.742188 L 131.902344 27.742188 Z M 125.230469 19.921875 C 129.488281 19.921875 131.769531 17.925781 131.769531 14.511719 C 131.769531 11.066406 129.5 9.101562 125.230469 9.101562 L 119.546875 9.101562 L 119.546875 19.933594 L 125.230469 19.933594 Z M 125.230469 19.921875 "/>
        <path style=" stroke:none;fill-rule:nonzero;fill:rgb(0%,0%,0%);fill-opacity:1;" d="M 160.320312 26.425781 L 160.320312 27.730469 L 146.597656 27.730469 L 146.597656 7.785156 L 159.898438 7.785156 L 159.898438 9.101562 L 148.054688 9.101562 L 148.054688 16.96875 L 158.652344 16.96875 L 158.652344 18.25 L 148.054688 18.25 L 148.054688 26.425781 Z M 160.320312 26.425781 "/>
        <path style=" stroke:none;fill-rule:nonzero;fill:rgb(0%,0%,0%);fill-opacity:1;" d="M 172.90625 7.785156 L 180.777344 7.785156 C 187.082031 7.785156 191.339844 11.949219 191.339844 17.757812 C 191.339844 23.570312 187.082031 27.730469 180.777344 27.730469 L 172.90625 27.730469 Z M 180.65625 26.425781 C 186.28125 26.425781 189.882812 22.835938 189.882812 17.757812 C 189.882812 12.683594 186.28125 9.089844 180.65625 9.089844 L 174.351562 9.089844 L 174.351562 26.425781 Z M 180.65625 26.425781 "/>
        <path style=" stroke:none;fill-rule:nonzero;fill:rgb(0%,0%,0%);fill-opacity:1;" d="M 10.933594 28 C 9.800781 28 8.699219 27.820312 7.675781 27.464844 C 1.570312 25.390625 0.371094 19.210938 1.195312 14.558594 C 1.226562 14.378906 1.316406 14.222656 1.449219 14.113281 L 9.589844 7.25 C 9.867188 7.015625 10.253906 7.015625 10.535156 7.230469 L 20.085938 14.625 L 19.160156 15.828125 L 10.101562 8.8125 L 2.640625 15.105469 C 1.628906 21.429688 4.808594 24.898438 8.164062 26.035156 C 11.578125 27.207031 16.171875 26.203125 18.328125 22.03125 L 18.671875 21.363281 L 20.015625 22.066406 L 19.671875 22.734375 C 17.773438 26.40625 14.269531 28 10.933594 28 Z M 10.933594 28 "/>
        <path style=" stroke:none;fill-rule:nonzero;fill:rgb(69.803922%,72.941176%,65.882353%);fill-opacity:1;" d="M 1.605469 8.933594 L 0.660156 7.753906 L 10.199219 0 L 19.773438 7.753906 L 18.828125 8.933594 L 10.210938 1.953125 Z M 1.605469 8.933594 "/>
    </g>
</svg>
