<?xml version="1.0" encoding="UTF-8"?>
<svg xmlns="http://www.w3.org/2000/svg" xmlns:xlink="http://www.w3.org/1999/xlink" width="194pt" height="40pt" viewBox="0 0 194 40" version="1.1">
<g id="surface1">
<path style=" stroke:none;fill-rule:nonzero;fill:rgb(13.72549%,12.156863%,12.54902%);fill-opacity:1;" d="M 50.355469 18.035156 C 50.355469 12.921875 46.484375 9.140625 41.34375 9.140625 C 36.175781 9.140625 32.304688 12.921875 32.304688 18.035156 C 32.304688 23.148438 36.175781 26.933594 41.34375 26.933594 C 46.484375 26.933594 50.355469 23.148438 50.355469 18.035156 M 30.832031 18.035156 C 30.832031 12.171875 35.308594 7.78125 41.34375 7.78125 C 47.351562 7.78125 51.859375 12.144531 51.859375 18.035156 C 51.859375 23.929688 47.351562 28.292969 41.34375 28.292969 C 35.308594 28.292969 30.832031 23.898438 30.832031 18.035156 "/>
<path style=" stroke:none;fill-rule:nonzero;fill:rgb(13.72549%,12.156863%,12.54902%);fill-opacity:1;" d="M 80.75 7.921875 L 71.734375 28.144531 L 70.261719 28.144531 L 61.25 7.921875 L 62.867188 7.921875 L 71.042969 26.238281 L 79.21875 7.921875 Z M 80.75 7.921875 "/>
<path style=" stroke:none;fill-rule:nonzero;fill:rgb(13.72549%,12.156863%,12.54902%);fill-opacity:1;" d="M 106.671875 26.816406 L 106.671875 28.144531 L 92.71875 28.144531 L 92.71875 7.921875 L 106.238281 7.921875 L 106.238281 9.253906 L 94.191406 9.253906 L 94.191406 17.226562 L 104.964844 17.226562 L 104.964844 18.527344 L 94.191406 18.527344 L 94.191406 26.816406 Z M 106.671875 26.816406 "/>
<path style=" stroke:none;fill-rule:nonzero;fill:rgb(13.72549%,12.156863%,12.54902%);fill-opacity:1;" d="M 126.71875 20.230469 C 131.050781 20.230469 133.363281 18.207031 133.363281 14.742188 C 133.363281 11.246094 131.050781 9.253906 126.71875 9.253906 L 120.941406 9.253906 L 120.941406 20.230469 Z M 133.507812 28.144531 L 128.683594 21.386719 C 128.046875 21.472656 127.414062 21.53125 126.71875 21.53125 L 120.941406 21.53125 L 120.941406 28.144531 L 119.46875 28.144531 L 119.46875 7.925781 L 126.71875 7.925781 C 131.800781 7.925781 134.863281 10.464844 134.863281 14.742188 C 134.863281 17.949219 133.132812 20.171875 130.128906 21.070312 L 135.183594 28.144531 Z M 133.507812 28.144531 "/>
<path style=" stroke:none;fill-rule:nonzero;fill:rgb(13.72549%,12.156863%,12.54902%);fill-opacity:1;" d="M 162.394531 26.816406 L 162.394531 28.144531 L 148.445312 28.144531 L 148.445312 7.921875 L 161.960938 7.921875 L 161.960938 9.253906 L 149.917969 9.253906 L 149.917969 17.226562 L 160.691406 17.226562 L 160.691406 18.527344 L 149.917969 18.527344 L 149.917969 26.816406 Z M 162.394531 26.816406 "/>
<path style=" stroke:none;fill-rule:nonzero;fill:rgb(13.72549%,12.156863%,12.54902%);fill-opacity:1;" d="M 183.078125 26.816406 C 188.800781 26.816406 192.464844 23.175781 192.464844 18.035156 C 192.464844 12.894531 188.800781 9.253906 183.078125 9.253906 L 176.667969 9.253906 L 176.667969 26.816406 Z M 175.195312 7.921875 L 183.195312 7.921875 C 189.609375 7.921875 193.941406 12.140625 193.941406 18.035156 C 193.941406 23.929688 189.609375 28.144531 183.195312 28.144531 L 175.195312 28.144531 Z M 175.195312 7.921875 "/>
<path style=" stroke:none;fill-rule:nonzero;fill:rgb(13.72549%,12.156863%,12.54902%);fill-opacity:1;" d="M 10.515625 28.410156 C 9.367188 28.410156 8.242188 28.222656 7.203125 27.871094 C 1.003906 25.765625 -0.222656 19.507812 0.613281 14.785156 C 0.644531 14.609375 0.738281 14.449219 0.875 14.332031 L 9.148438 7.375 C 9.425781 7.140625 9.828125 7.132812 10.113281 7.355469 L 19.820312 14.847656 L 18.878906 16.066406 L 9.664062 8.953125 L 2.082031 15.328125 C 1.054688 21.738281 4.289062 25.253906 7.699219 26.414062 C 11.171875 27.59375 15.839844 26.578125 18.035156 22.355469 L 18.390625 21.671875 L 19.757812 22.382812 L 19.402344 23.066406 C 17.460938 26.792969 13.902344 28.410156 10.515625 28.410156 "/>
<path style=" stroke:none;fill-rule:nonzero;fill:rgb(65.490196%,70.588235%,64.313725%);fill-opacity:1;" d="M 1.027344 9.089844 L 0.0585938 7.890625 L 9.769531 0.0351562 L 19.503906 7.890625 L 18.535156 9.089844 L 9.773438 2.015625 Z M 1.027344 9.089844 "/>
<path style=" stroke:none;fill-rule:nonzero;fill:rgb(13.72549%,12.156863%,12.54902%);fill-opacity:1;" d="M 2.875 39.59375 C 2.566406 39.410156 2.328125 39.152344 2.160156 38.828125 C 1.992188 38.503906 1.910156 38.140625 1.910156 37.738281 L 1.910156 34.570312 L 2.53125 34.570312 L 2.53125 37.738281 C 2.53125 38.054688 2.59375 38.332031 2.714844 38.570312 C 2.835938 38.808594 3.007812 38.992188 3.222656 39.121094 C 3.4375 39.25 3.6875 39.316406 3.972656 39.316406 C 4.410156 39.316406 4.757812 39.171875 5.019531 38.882812 C 5.28125 38.59375 5.410156 38.210938 5.410156 37.738281 L 5.410156 34.570312 L 6.035156 34.570312 L 6.035156 37.738281 C 6.035156 38.160156 5.945312 38.53125 5.769531 38.855469 C 5.589844 39.175781 5.34375 39.425781 5.03125 39.605469 C 4.714844 39.78125 4.359375 39.871094 3.957031 39.871094 C 3.546875 39.871094 3.183594 39.777344 2.875 39.59375 "/>
<path style=" stroke:none;fill-rule:nonzero;fill:rgb(13.72549%,12.156863%,12.54902%);fill-opacity:1;" d="M 11.945312 34.496094 L 12.210938 34.496094 L 15.480469 38.578125 L 15.585938 38.769531 L 15.578125 38.554688 L 15.570312 34.566406 L 16.1875 34.566406 L 16.1875 39.804688 L 15.867188 39.804688 L 15.425781 39.371094 L 12.828125 36.25 L 12.53125 35.851562 L 12.570312 36.355469 L 12.570312 39.804688 L 11.945312 39.804688 Z M 11.945312 34.496094 "/>
<path style=" stroke:none;fill-rule:nonzero;fill:rgb(13.72549%,12.156863%,12.54902%);fill-opacity:1;" d="M 23.132812 39.5625 C 22.738281 39.324219 22.429688 38.996094 22.207031 38.585938 C 21.984375 38.175781 21.871094 37.722656 21.871094 37.230469 C 21.871094 36.726562 21.992188 36.257812 22.226562 35.828125 C 22.464844 35.394531 22.78125 35.050781 23.179688 34.796875 C 23.578125 34.539062 24.011719 34.410156 24.484375 34.410156 C 24.945312 34.410156 25.367188 34.515625 25.75 34.71875 C 26.128906 34.925781 26.316406 35.296875 26.304688 35.835938 L 25.703125 35.835938 C 25.71875 35.515625 25.59375 35.296875 25.324219 35.171875 C 25.058594 35.050781 24.765625 34.988281 24.445312 34.988281 C 24.089844 34.988281 23.765625 35.097656 23.464844 35.304688 C 23.164062 35.515625 22.925781 35.796875 22.75 36.144531 C 22.570312 36.492188 22.480469 36.859375 22.480469 37.253906 C 22.480469 37.628906 22.566406 37.976562 22.738281 38.296875 C 22.90625 38.617188 23.140625 38.871094 23.441406 39.0625 C 23.742188 39.25 24.082031 39.347656 24.460938 39.347656 C 24.816406 39.347656 25.144531 39.265625 25.449219 39.101562 C 25.75 38.941406 25.988281 38.710938 26.167969 38.410156 L 26.679688 38.761719 C 26.4375 39.144531 26.121094 39.4375 25.722656 39.632812 C 25.324219 39.828125 24.902344 39.925781 24.453125 39.925781 C 23.96875 39.925781 23.527344 39.804688 23.132812 39.5625 "/>
<path style=" stroke:none;fill-rule:nonzero;fill:rgb(13.72549%,12.156863%,12.54902%);fill-opacity:1;" d="M 35.445312 39.117188 C 35.746094 38.9375 35.980469 38.6875 36.15625 38.371094 C 36.328125 38.058594 36.414062 37.707031 36.414062 37.316406 L 36.414062 37.09375 C 36.414062 36.722656 36.324219 36.378906 36.148438 36.0625 C 35.96875 35.742188 35.730469 35.492188 35.425781 35.308594 C 35.125 35.121094 34.792969 35.03125 34.425781 35.03125 C 34.066406 35.03125 33.734375 35.121094 33.4375 35.308594 C 33.136719 35.492188 32.898438 35.742188 32.722656 36.0625 C 32.546875 36.378906 32.460938 36.722656 32.460938 37.09375 L 32.460938 37.316406 C 32.460938 37.707031 32.546875 38.058594 32.71875 38.371094 C 32.890625 38.6875 33.128906 38.9375 33.433594 39.117188 C 33.734375 39.296875 34.070312 39.386719 34.441406 39.386719 C 34.8125 39.386719 35.148438 39.296875 35.445312 39.117188 M 33.113281 39.609375 C 32.714844 39.378906 32.402344 39.066406 32.175781 38.667969 C 31.949219 38.269531 31.835938 37.816406 31.835938 37.316406 L 31.835938 37.09375 C 31.835938 36.613281 31.953125 36.167969 32.183594 35.765625 C 32.414062 35.359375 32.730469 35.039062 33.128906 34.804688 C 33.527344 34.570312 33.960938 34.449219 34.433594 34.449219 C 34.910156 34.449219 35.347656 34.570312 35.742188 34.804688 C 36.140625 35.039062 36.453125 35.359375 36.6875 35.765625 C 36.921875 36.167969 37.039062 36.613281 37.039062 37.09375 L 37.039062 37.316406 C 37.039062 37.816406 36.925781 38.269531 36.699219 38.679688 C 36.472656 39.085938 36.164062 39.402344 35.773438 39.628906 C 35.382812 39.859375 34.945312 39.96875 34.464844 39.964844 C 33.960938 39.960938 33.511719 39.839844 33.113281 39.609375 "/>
<path style=" stroke:none;fill-rule:nonzero;fill:rgb(13.72549%,12.156863%,12.54902%);fill-opacity:1;" d="M 42.21875 35.164062 C 42.191406 35.15625 42.128906 35.140625 42.035156 35.125 L 42.035156 34.53125 C 42.238281 34.53125 42.40625 34.574219 42.542969 34.660156 C 42.683594 34.742188 42.785156 34.878906 42.855469 35.066406 L 44.210938 38.789062 L 45.683594 34.5625 L 46.3125 34.5625 L 44.496094 39.804688 L 43.9375 39.804688 L 42.277344 35.234375 C 42.261719 35.199219 42.242188 35.175781 42.21875 35.164062 "/>
<path style=" stroke:none;fill-rule:nonzero;fill:rgb(13.72549%,12.156863%,12.54902%);fill-opacity:1;" d="M 51.800781 34.570312 L 55.214844 34.570312 L 55.214844 35.152344 L 52.410156 35.152344 L 52.410156 36.742188 L 54.476562 36.742188 L 54.476562 37.320312 L 52.410156 37.320312 L 52.410156 39.226562 L 55.359375 39.226562 L 55.359375 39.804688 L 51.800781 39.804688 Z M 51.800781 34.570312 "/>
<path style=" stroke:none;fill-rule:nonzero;fill:rgb(13.72549%,12.156863%,12.54902%);fill-opacity:1;" d="M 64.765625 39.71875 C 64.671875 39.820312 64.527344 39.871094 64.324219 39.871094 C 64.058594 39.871094 63.847656 39.765625 63.683594 39.550781 L 62.800781 38.339844 C 62.703125 38.214844 62.617188 38.113281 62.546875 38.035156 C 62.472656 37.960938 62.371094 37.894531 62.25 37.84375 C 62.125 37.789062 61.96875 37.761719 61.789062 37.753906 L 61.789062 37.167969 L 62.519531 37.167969 C 62.816406 37.167969 63.054688 37.082031 63.226562 36.90625 C 63.398438 36.730469 63.484375 36.488281 63.484375 36.1875 C 63.484375 35.882812 63.402344 35.632812 63.238281 35.4375 C 63.074219 35.246094 62.859375 35.148438 62.601562 35.148438 L 61.503906 35.148438 L 61.503906 39.804688 L 60.882812 39.804688 L 60.882812 34.570312 L 62.632812 34.570312 C 62.90625 34.570312 63.15625 34.640625 63.382812 34.785156 C 63.609375 34.925781 63.785156 35.117188 63.914062 35.351562 C 64.046875 35.589844 64.109375 35.839844 64.109375 36.109375 C 64.109375 36.433594 64.023438 36.726562 63.851562 36.984375 C 63.679688 37.246094 63.46875 37.410156 63.21875 37.480469 C 63.097656 37.515625 62.894531 37.535156 62.609375 37.535156 C 62.757812 37.574219 62.863281 37.617188 62.933594 37.660156 C 63 37.703125 63.078125 37.773438 63.15625 37.875 L 63.441406 38.257812 C 63.835938 38.789062 64.058594 39.089844 64.109375 39.15625 C 64.15625 39.210938 64.195312 39.25 64.226562 39.273438 C 64.261719 39.296875 64.296875 39.308594 64.332031 39.308594 C 64.390625 39.308594 64.445312 39.285156 64.492188 39.238281 Z M 64.765625 39.71875 "/>
<path style=" stroke:none;fill-rule:nonzero;fill:rgb(13.72549%,12.156863%,12.54902%);fill-opacity:1;" d="M 78.296875 35.152344 L 76.570312 35.152344 L 76.570312 34.574219 L 80.652344 34.574219 L 80.652344 35.152344 L 78.921875 35.152344 L 78.921875 39.804688 L 78.296875 39.804688 Z M 78.296875 35.152344 "/>
<path style=" stroke:none;fill-rule:nonzero;fill:rgb(13.72549%,12.156863%,12.54902%);fill-opacity:1;" d="M 86.132812 34.570312 L 86.757812 34.570312 L 86.757812 36.789062 L 89.308594 36.789062 L 89.308594 34.570312 L 89.933594 34.570312 L 89.933594 39.804688 L 89.308594 39.804688 L 89.308594 37.382812 L 86.757812 37.382812 L 86.757812 39.804688 L 86.132812 39.804688 Z M 86.132812 34.570312 "/>
<path style=" stroke:none;fill-rule:nonzero;fill:rgb(13.72549%,12.156863%,12.54902%);fill-opacity:1;" d="M 95.917969 34.570312 L 99.332031 34.570312 L 99.332031 35.152344 L 96.527344 35.152344 L 96.527344 36.742188 L 98.589844 36.742188 L 98.589844 37.320312 L 96.527344 37.320312 L 96.527344 39.226562 L 99.476562 39.226562 L 99.476562 39.804688 L 95.917969 39.804688 Z M 95.917969 34.570312 "/>
<path style=" stroke:none;fill-rule:nonzero;fill:rgb(13.72549%,12.156863%,12.54902%);fill-opacity:1;" d="M 115.773438 39.71875 C 115.679688 39.820312 115.535156 39.871094 115.332031 39.871094 C 115.066406 39.871094 114.851562 39.765625 114.691406 39.550781 L 113.808594 38.339844 C 113.710938 38.214844 113.625 38.113281 113.550781 38.035156 C 113.476562 37.960938 113.378906 37.894531 113.253906 37.84375 C 113.132812 37.789062 112.976562 37.761719 112.792969 37.753906 L 112.792969 37.167969 L 113.527344 37.167969 C 113.824219 37.167969 114.0625 37.082031 114.234375 36.90625 C 114.40625 36.730469 114.492188 36.488281 114.492188 36.1875 C 114.492188 35.882812 114.410156 35.632812 114.246094 35.4375 C 114.082031 35.246094 113.867188 35.148438 113.609375 35.148438 L 112.511719 35.148438 L 112.511719 39.804688 L 111.886719 39.804688 L 111.886719 34.570312 L 113.640625 34.570312 C 113.914062 34.570312 114.164062 34.640625 114.390625 34.785156 C 114.617188 34.925781 114.792969 35.117188 114.921875 35.351562 C 115.050781 35.589844 115.117188 35.839844 115.117188 36.109375 C 115.117188 36.433594 115.03125 36.726562 114.859375 36.984375 C 114.6875 37.246094 114.476562 37.410156 114.226562 37.480469 C 114.105469 37.515625 113.902344 37.535156 113.617188 37.535156 C 113.765625 37.574219 113.871094 37.617188 113.941406 37.660156 C 114.007812 37.703125 114.082031 37.773438 114.164062 37.875 L 114.445312 38.257812 C 114.84375 38.789062 115.066406 39.089844 115.117188 39.15625 C 115.164062 39.210938 115.203125 39.25 115.234375 39.273438 C 115.269531 39.296875 115.300781 39.308594 115.339844 39.308594 C 115.398438 39.308594 115.453125 39.285156 115.5 39.238281 Z M 115.773438 39.71875 "/>
<path style=" stroke:none;fill-rule:nonzero;fill:rgb(13.72549%,12.156863%,12.54902%);fill-opacity:1;" d="M 121.238281 34.570312 L 124.648438 34.570312 L 124.648438 35.152344 L 121.84375 35.152344 L 121.84375 36.742188 L 123.910156 36.742188 L 123.910156 37.320312 L 121.84375 37.320312 L 121.84375 39.226562 L 124.792969 39.226562 L 124.792969 39.804688 L 121.238281 39.804688 Z M 121.238281 34.570312 "/>
<path style=" stroke:none;fill-rule:nonzero;fill:rgb(13.72549%,12.156863%,12.54902%);fill-opacity:1;" d="M 132.519531 35.925781 L 132.460938 35.730469 L 132.414062 35.554688 L 132.359375 35.722656 L 132.300781 35.925781 L 131.660156 37.558594 L 133.167969 37.558594 Z M 132.292969 34.425781 L 132.542969 34.425781 L 134.789062 39.804688 L 134.128906 39.804688 L 133.410156 38.121094 L 131.421875 38.121094 L 130.722656 39.804688 L 130.058594 39.804688 Z M 132.292969 34.425781 "/>
<path style=" stroke:none;fill-rule:nonzero;fill:rgb(13.72549%,12.156863%,12.54902%);fill-opacity:1;" d="M 140.261719 34.570312 L 140.886719 34.570312 L 140.886719 39.226562 L 143.453125 39.226562 L 143.453125 39.804688 L 140.261719 39.804688 Z M 140.261719 34.570312 "/>
<path style=" stroke:none;fill-rule:nonzero;fill:rgb(13.72549%,12.156863%,12.54902%);fill-opacity:1;" d="M 155.792969 34.570312 L 156.417969 34.570312 L 156.417969 39.804688 L 155.792969 39.804688 Z M 155.792969 34.570312 "/>
<path style=" stroke:none;fill-rule:nonzero;fill:rgb(13.72549%,12.156863%,12.54902%);fill-opacity:1;" d="M 164.988281 39.050781 C 165.207031 38.886719 165.316406 38.652344 165.316406 38.339844 C 165.316406 38.042969 165.214844 37.796875 165.015625 37.609375 C 164.8125 37.421875 164.53125 37.328125 164.164062 37.328125 L 163.023438 37.328125 L 163.023438 39.253906 L 163.570312 39.277344 L 164.066406 39.292969 C 164.460938 39.292969 164.769531 39.210938 164.988281 39.050781 M 163.023438 35.082031 L 163.023438 36.742188 L 164.113281 36.742188 C 164.402344 36.742188 164.636719 36.667969 164.8125 36.519531 C 164.992188 36.375 165.078125 36.160156 165.078125 35.882812 C 165.078125 35.636719 165.003906 35.449219 164.859375 35.3125 C 164.710938 35.179688 164.496094 35.101562 164.21875 35.082031 Z M 165.933594 38.339844 C 165.933594 38.660156 165.839844 38.953125 165.65625 39.214844 C 165.476562 39.476562 165.214844 39.660156 164.882812 39.765625 C 164.664062 39.835938 164.367188 39.871094 163.992188 39.871094 C 163.46875 39.871094 163.089844 39.859375 162.863281 39.832031 L 162.398438 39.78125 L 162.398438 34.488281 L 164.121094 34.488281 C 164.375 34.488281 164.585938 34.519531 164.757812 34.585938 C 165.054688 34.699219 165.285156 34.871094 165.453125 35.105469 C 165.621094 35.335938 165.703125 35.605469 165.703125 35.910156 C 165.703125 36.378906 165.496094 36.714844 165.085938 36.925781 C 165.054688 36.9375 165.003906 36.960938 164.925781 36.984375 C 164.957031 36.984375 165 36.996094 165.058594 37.015625 C 165.117188 37.035156 165.164062 37.054688 165.199219 37.078125 C 165.6875 37.371094 165.933594 37.792969 165.933594 38.339844 "/>
<path style=" stroke:none;fill-rule:nonzero;fill:rgb(13.72549%,12.156863%,12.54902%);fill-opacity:1;" d="M 171.628906 34.570312 L 172.253906 34.570312 L 172.253906 39.804688 L 171.628906 39.804688 Z M 171.628906 34.570312 "/>
<path style=" stroke:none;fill-rule:nonzero;fill:rgb(13.72549%,12.156863%,12.54902%);fill-opacity:1;" d="M 177.777344 39.589844 L 180.375 35.167969 L 177.84375 35.167969 L 177.84375 34.585938 L 181.28125 34.585938 L 181.28125 34.777344 L 178.683594 39.226562 L 181.433594 39.226562 L 181.433594 39.804688 L 177.777344 39.804688 Z M 177.777344 39.589844 "/>
<path style=" stroke:none;fill-rule:nonzero;fill:rgb(13.72549%,12.156863%,12.54902%);fill-opacity:1;" d="M 189.152344 35.925781 L 189.089844 35.730469 L 189.042969 35.554688 L 188.992188 35.722656 L 188.929688 35.925781 L 188.289062 37.558594 L 189.796875 37.558594 Z M 188.921875 34.425781 L 189.171875 34.425781 L 191.417969 39.804688 L 190.757812 39.804688 L 190.042969 38.121094 L 188.054688 38.121094 L 187.351562 39.804688 L 186.691406 39.804688 Z M 188.921875 34.425781 "/>
</g>
</svg>
